<?xml version="1.0" encoding="UTF-8"?>
<svg id="Livello_1" xmlns="http://www.w3.org/2000/svg" viewBox="0 0 96 96">
  <defs>
    <style>
      .cls-1 {
        fill: #fffffc;
      }

      .cls-2 {
        font-family: BradleyHandITCTTBold, 'Bradley Hand ITC TT';
        font-size: 11px;
      }

      .cls-2, .cls-3 {
        fill: #222165;
      }

      .cls-4 {
        fill: #e63020;
      }
    </style>
  </defs>
  <rect class="cls-3" width="96" height="96"/>
  <path class="cls-1" d="M48.66,8.23L9.72,37.22h77.28L48.66,8.23ZM48.58,12.41l28.3,21.4H19.84l28.74-21.4Z"/>
  <g>
    <path class="cls-4" d="M67.14,44.28c.08-.07.17,0,.25-.02.93-.01,1.86,0,2.79,0,.25,0,.25,0,.25.24,0,.85.02,1.69-.01,2.54,0,3.26,0,6.52,0,9.78,0,.09,0,.18-.01.27-.05.05-.12.03-.18.03-1.75,0-3.51,0-5.26,0-.06,0-.12.03-.17-.04-.88-1.1-1.76-2.21-2.64-3.31-.61-.76-1.21-1.51-1.82-2.27-.56-.7-1.09-1.41-1.67-2.09-.36-.42-.67-.87-1.04-1.28-.2-.22-.44-.21-.7-.18-.11.01-.11.1-.11.17.07.66,0,1.31,0,1.97.01,2.2,0,4.39,0,6.59q0,.41-.42.41c-1.01,0-2.02,0-3.03,0-.17,0-.23-.02-.23-.22.01-2.27.01-4.55.01-6.82,0-1.72,0-3.44,0-5.17,0-.15,0-.29-.01-.44-.02-.15.03-.22.18-.22.06.03.12.02.18.02,1.72,0,3.43,0,5.15,0,.06,0,.12.01.18-.02.31-.03.41.23.55.42.61.81,1.25,1.6,1.87,2.4.7.9,1.39,1.8,2.09,2.7.92,1.17,1.84,2.34,2.76,3.51.13.16.27.32.38.49.15.23.34.21.55.15.02-.02.03-.05.04-.08.01-.11,0-.21,0-.32,0-2.96,0-5.91,0-8.87,0-.11-.02-.23.03-.34Z"/>
    <path class="cls-4" d="M66.93,68.95c0-.08.02-.15.02-.23,0-2.39,0-4.79,0-7.18,0-.17-.02-.35-.03-.52-.01-.13.03-.18.16-.18,1.06,0,2.11,0,3.17,0,.17,0,.17.08.17.21,0,.87,0,1.74,0,2.61.02.08,0,.15,0,.23,0,3.1,0,6.21,0,9.31,0,.08.03.17-.03.24-1.82,0-3.64,0-5.47,0-.15,0-.25-.03-.35-.16-1.45-1.83-2.9-3.65-4.36-5.48-.64-.8-1.29-1.6-1.93-2.41-.32-.4-.64-.8-.94-1.21-.14-.2-.3-.3-.54-.25-.05.09-.03.18-.03.27,0,2.98,0,5.97,0,8.95,0,.09.02.18-.02.27-1.15,0-2.3,0-3.44,0-.16,0-.17-.08-.17-.2,0-3.23.01-6.46.01-9.69,0-.85,0-1.7-.01-2.55,0-.13.03-.18.16-.18,1.86,0,3.72,0,5.58,0,.1,0,.15.04.2.11.7.88,1.41,1.76,2.12,2.64,1.05,1.32,2.1,2.64,3.15,3.96.68.85,1.36,1.7,2.03,2.56.12.15.25.14.41.14.11,0,.08-.08.08-.15,0-.16,0-.32,0-.48.06-.22-.03-.45.05-.67Z"/>
    <path class="cls-4" d="M73.21,44.28c.06-.04.13-.03.2-.03.17.01.33.03.5.03,4.18,0,8.35,0,12.53,0,.03,0,.06,0,.09,0q.47,0,.47.48c0,.65,0,1.3,0,1.95,0,.08.06.19-.08.23-.06-.02-.12-.01-.18-.01-3.1,0-6.2,0-9.3,0-.07,0-.14-.01-.2.02-.24.14-.34.33-.33.62,0,.51.05,1.02-.02,1.53-.03.22.28.48.54.48,2.1,0,4.21,0,6.31,0,.62,0,1.24,0,1.86,0,.13,0,.19.03.19.18,0,.64,0,1.29,0,1.93,0,.15-.06.19-.21.19-2.73,0-5.47,0-8.2,0-.33,0-.49.22-.47.56.02.48.02.96,0,1.45-.02.35.14.55.5.55,1,0,2.01,0,3.01,0,2.09,0,4.18,0,6.27,0,.32,0,.32,0,.32.33,0,.71,0,1.42.01,2.14,0,.18-.05.22-.22.22-4.46,0-8.91,0-13.37,0-.13,0-.24,0-.21-.18-.01-.08,0-.15,0-.23,0-4.05,0-8.1,0-12.16,0-.08-.01-.17.01-.25Z"/>
    <path class="cls-4" d="M73.18,64.48c.05-.36-.03-.73.07-1.09.17-.61.49-1.14.93-1.58.26-.26.59-.44.92-.6.28-.13.55-.28.86-.33.08-.01.16-.03.25-.03,3.5,0,7.01,0,10.51,0,.18,0,.24.04.23.23,0,.68,0,1.36.01,2.04,0,.16-.04.23-.22.23-2.73,0-5.46-.02-8.19,0-.67,0-1.43.42-1.57,1.43.01,1.28,0,2.56,0,3.84.01.27-.02.54.02.8-.02.16.07.28.14.4.21.33.49.61.81.83.13.09.29.12.45.12,2.01,0,4.02,0,6.03,0,.2,0,.26-.05.25-.26-.02-.5-.01-.99,0-1.49,0-.2-.13-.25-.25-.34-.08-.05-.16-.02-.25-.02-1.44,0-2.88,0-4.32,0-.19,0-.25-.04-.24-.24.01-.65,0-1.3,0-1.95,0-.16.04-.21.2-.21,2.29,0,4.58,0,6.87,0,.1,0,.2-.02.26.09-.06.09-.03.19-.03.29,0,2.18,0,4.36.02,6.54,0,.2-.05.26-.25.26-3.44,0-6.87,0-10.31,0-.29,0-.58-.06-.86-.17-.82-.3-1.41-.86-1.86-1.59-.22-.35-.39-.72-.46-1.13-.09-.13-.1-.28-.1-.43,0-1.86,0-3.72,0-5.57,0-.03,0-.06.04-.08Z"/>
    <path class="cls-4" d="M31.67,56.32c0,.26,0,.52,0,.78-.05.04-.12.03-.18.03-1.03,0-2.05,0-3.08,0-.07,0-.16.04-.2-.06.02-.11.01-.23.01-.34,0-4.04,0-8.08,0-12.12,0-.16-.04-.35.22-.32,4.85,0,9.7,0,14.55,0,.11,0,.23,0,.34,0,.09-.04.2,0,.29-.04.09.04.09.11.09.19,0,.85,0,1.69,0,2.54,0,.23-.13.17-.25.16-.08-.03-.17-.02-.25-.02-3.72,0-7.44,0-11.16,0-.08,0-.17-.02-.25.02-.05.03-.09.07-.14.1-.04.04-.03.08-.03.13,0,.79,0,1.57,0,2.36,0,.04,0,.08.02.11.02.02.05.04.07.06.03.02.05.03.08.04.11.01.21,0,.32,0,3.44,0,6.89,0,10.33,0,.12,0,.25-.02.36.04.08.06.07.15.07.23,0,.73,0,1.47,0,2.2,0,.2-.07.24-.25.24-3.56,0-7.12,0-10.68,0-.13,0-.24,0-.31.14-.03.05-.02.1-.02.15,0,1.09,0,2.18,0,3.26,0,.04,0,.08.01.11Z"/>
    <path class="cls-4" d="M36.92,73.46c-.68,0-1.36,0-2.04,0-.16,0-.24-.05-.32-.19-.68-1.38-1.37-2.75-2.05-4.12-1.04-2.07-2.08-4.13-3.12-6.19-.32-.64-.64-1.28-.96-1.92-.07-.15-.06-.2.12-.19,1.14,0,2.28,0,3.42,0,.13,0,.19.05.24.16.75,1.61,1.5,3.22,2.25,4.83.59,1.26,1.19,2.53,1.78,3.79.05.12.1.24.16.35.06.11.08.29.19.32.19.04.39.02.59.02.09,0,.11-.09.14-.16.84-1.82,1.69-3.63,2.53-5.45.58-1.24,1.16-2.48,1.73-3.73.05-.11.12-.12.22-.12,1.15,0,2.3,0,3.45,0,.15,0,.19.03.11.18-.54,1.07-1.08,2.14-1.61,3.21-.77,1.54-1.53,3.09-2.3,4.63-.74,1.48-1.47,2.96-2.21,4.45-.06.12-.15.15-.28.15-.69,0-1.38,0-2.07,0Z"/>
    <path class="cls-4" d="M9.76,72.86s0-.09.01-.14c.04-.07.02-.15.02-.23,0-3.45,0-6.89,0-10.34,0-.08.02-.15-.02-.23,0-.03,0-.06-.01-.09-.01-.33-.04-.66.01-.99.92,0,1.84,0,2.76,0,.19,0,.22.07.22.24,0,3.08,0,6.17,0,9.25,0,.22.06.28.28.28,2.59,0,5.19,0,7.78-.01.19,0,.25.03.25.24-.02.78-.01,1.56,0,2.34,0,.21-.04.27-.26.27-3.59,0-7.18,0-10.77,0-.08,0-.15,0-.23,0-.08-.2-.03-.4-.03-.6Z"/>
    <path class="cls-4" d="M23.88,73.47c-.21,0-.43,0-.64,0-.1,0-.16-.02-.16-.14.05-1.09.02-2.19.02-3.28,0-2.99,0-5.97,0-8.96,0-.19.04-.24.24-.24.94.01,1.88.01,2.82,0,.18,0,.21.05.21.22,0,3.99,0,7.98,0,11.96,0,.12,0,.24.01.37,0,.09-.07.09-.13.09-.79,0-1.58.02-2.37-.01Z"/>
    <path class="cls-4" d="M47,44.33c.06-.08.14-.05.21-.05.88-.02,1.76.04,2.64-.04.15-.01.14.07.14.17,0,.57,0,1.13,0,1.7,0,3.56,0,7.12,0,10.67,0,.08-.03.17.03.24-.02.1-.1.1-.18.1-.89,0-1.78,0-2.67,0-.09,0-.17,0-.2-.11.03-.14.01-.29.01-.43,0-4.05,0-8.09,0-12.14,0-.04,0-.08.01-.11Z"/>
    <path class="cls-4" d="M47.04,60.84c.9,0,1.81,0,2.71,0,.18,0,.23.04.23.23,0,4.05,0,8.1,0,12.14,0,.18-.04.25-.24.25-.9,0-1.81,0-2.71,0-.07-.08-.05-.17-.05-.26,0-4.03,0-8.06,0-12.09,0-.09-.02-.19.05-.26Z"/>
    <path class="cls-4" d="M43.65,44.24c-.08.06-.17.02-.26.05-.09.04-.18.02-.27.02-4.88,0-9.77,0-14.65,0-.21-.04-.21.08-.21.24,0,4.08,0,8.16,0,12.23,0,.09.02.18-.02.27.03.08.1.06.15.06,1.1,0,2.19,0,3.29,0-.07.07-.16.05-.24.05-.99,0-1.99,0-2.98,0-.22,0-.27-.08-.27-.28,0-4.12,0-8.23,0-12.35,0-.19.03-.29.26-.29,5.01,0,10.03,0,15.04,0,.05,0,.11,0,.16,0Z"/>
    <path class="cls-4" d="M47,44.33c0,.08.01.17.01.25,0,4.07,0,8.14,0,12.21,0,.08-.01.15-.02.23-.03,0-.03-.03-.05-.05,0-.57,0-1.14,0-1.7.04-.22,0-.44.02-.67,0-.95,0-1.9,0-2.85,0-.08.02-.17-.02-.25,0-2.32,0-4.65,0-6.97,0-.07-.05-.16.05-.2Z"/>
    <path class="cls-4" d="M47.04,60.84c0,.6-.02,1.19-.02,1.79,0,3.53,0,7.05,0,10.58,0,.08-.02.17.03.25-.02,0-.04,0-.06,0-.04-.08-.02-.17-.02-.25,0-1.26,0-2.52,0-3.78s0-2.63,0-3.94c0-.08.02-.17-.02-.25,0-1.37,0-2.74,0-4.11,0-.1-.04-.22.09-.28Z"/>
    <path class="cls-4" d="M87,66.36c-.08-.06-.16-.08-.26-.08-2.29,0-4.57,0-6.86,0-.15,0-.19.04-.19.19,0,.66,0,1.32,0,1.97,0,.16.05.19.19.19,1.39,0,2.78,0,4.17,0,.14,0,.29-.04.42.06-1.51,0-3.01,0-4.52,0-.31,0-.31,0-.31-.31,0-.63,0-1.25,0-1.88,0-.19.07-.25.25-.25,2.29,0,4.58,0,6.86,0,.09,0,.21-.03.24.12Z"/>
    <path class="cls-4" d="M73.21,44.28c0,.81,0,1.62,0,2.43,0,3.3,0,6.61,0,9.91,0,.1,0,.2-.02.3-.04-.09-.03-.18-.03-.27,0-3.99,0-7.99,0-11.98,0-.13-.03-.26.04-.38Z"/>
    <path class="cls-4" d="M31.83,47.14c.05-.09.14-.04.2-.04,3.73,0,7.46,0,11.19,0,.09,0,.19-.02.27.04-.5,0-.99.02-1.49.02-3.29,0-6.58,0-9.87,0-.1,0-.2,0-.3,0Z"/>
    <path class="cls-4" d="M42.85,49.98c-3.62,0-7.23,0-10.85,0-.08,0-.15,0-.22-.05.06-.04.13-.02.2-.02,3.55,0,7.09,0,10.64,0,.06,0,.12,0,.18.01.02.02.03.03.05.05Z"/>
    <path class="cls-4" d="M42.8,49.93c-3.67,0-7.35,0-11.02,0,0-.01-.02-.03-.02-.04,3.61,0,7.22,0,10.82,0,.08,0,.15,0,.22.04Z"/>
    <path class="cls-4" d="M9.77,61.93c.06.08.04.18.04.27,0,3.42,0,6.84,0,10.26,0,.09.02.18-.04.27,0-.28,0-.57,0-.85,0-3.25,0-6.49,0-9.74,0-.07,0-.14,0-.21Z"/>
    <path class="cls-4" d="M70.41,73.46c0-.09,0-.18,0-.27,0-3.08,0-6.16,0-9.24,0-.09,0-.18.01-.27.05.09.03.18.03.27,0,3.08,0,6.15,0,9.23,0,.1.03.2-.05.28Z"/>
    <path class="cls-4" d="M77.22,46.94c.08-.06.18-.04.27-.04,3.05,0,6.1,0,9.15,0,.09,0,.18-.01.27.03-.05,0-.11.01-.16.01-3.14,0-6.28,0-9.41,0-.04,0-.08,0-.11,0Z"/>
    <path class="cls-4" d="M67.14,44.28c0,.09.01.18.01.27,0,3,0,6.01,0,9.01,0,.1.03.22-.05.31-.03-.07-.02-.15-.02-.23,0-3.05,0-6.1,0-9.15,0-.07-.02-.15.03-.22.01,0,.02,0,.03,0Z"/>
    <path class="cls-4" d="M67.11,44.28c0,1.29,0,2.59,0,3.88,0,1.91,0,3.81,0,5.72-.01,0-.03,0-.04.01,0-3.12,0-6.25,0-9.37,0-.08-.02-.17.05-.24Z"/>
    <path class="cls-4" d="M56.77,73.45c0-3.06,0-6.12,0-9.18,0-.1-.03-.22.05-.31,0,2.92,0,5.84,0,8.76,0,.2,0,.4,0,.6,0,.05.03.11-.04.14Z"/>
    <path class="cls-4" d="M66.93,68.95c-.04.22.04.45-.05.67,0-2.46,0-4.92,0-7.38h.04v.27c0,2.04,0,4.08,0,6.12,0,.11,0,.21,0,.32Z"/>
    <path class="cls-4" d="M73.18,64.54c0,1.44,0,2.88,0,4.31,0,.52-.03,1.04.02,1.56,0,.05.03.1.04.15-.12-.11-.12-.25-.12-.4,0-1.87,0-3.75,0-5.62.01-.03.03-.03.05,0Z"/>
    <path class="cls-4" d="M23.88,73.47c.76,0,1.52,0,2.28-.02.08,0,.17.04.22-.06.04-.09.02-.18.02-.27,0-.94,0-1.88,0-2.82,0-.08,0-.16,0-.28.07.1.04.17.04.23,0,.98,0,1.96,0,2.94,0,.3-.02.32-.31.32-.67,0-1.35,0-2.02,0-.08,0-.17,0-.25-.04Z"/>
    <path class="cls-4" d="M64.81,57.09c1.87,0,3.73,0,5.6.01-.08.07-.17.05-.26.05-1.69,0-3.37,0-5.06,0-.1,0-.2.03-.28-.06Z"/>
    <path class="cls-4" d="M58.86,44.24c-.11.05-.24.05-.36.05-1.59,0-3.18,0-4.77,0-.13,0-.26.02-.38-.05,1.84,0,3.67,0,5.51,0Z"/>
    <path class="cls-4" d="M46.94,65.23c.04.05.04.11.04.18,0,1.34,0,2.67,0,4.01,0,.03-.02.03-.03,0,0-1.39,0-2.79,0-4.18Z"/>
    <path class="cls-4" d="M46.94,69.41s.02,0,.03,0c0,1.35,0,2.69,0,4.04-.06-.07-.04-.16-.04-.24,0-1.26,0-2.53,0-3.79Z"/>
    <path class="cls-4" d="M76.98,68.63c-.04-.27-.02-.55-.02-.82,0-.89,0-1.78,0-2.67,0-.12-.03-.24.03-.36.04.07.03.15.03.22,0,1.21,0,2.42,0,3.64-.02.03-.03.03-.05,0Z"/>
    <path class="cls-4" d="M31.67,56.32c-.04-.06-.03-.13-.03-.2,0-1.07,0-2.13,0-3.2,0-.05-.03-.11.04-.14,0,1.18,0,2.36-.01,3.53Z"/>
    <path class="cls-4" d="M46.94,56.97s.03.03.05.05c.03.1.11.09.18.09.88,0,1.76,0,2.64,0,.08,0,.15,0,.21-.07-.02.12-.12.12-.21.12-.88,0-1.76,0-2.63,0-.13,0-.23-.02-.23-.18Z"/>
    <path class="cls-4" d="M46.94,51.5c.04.05.04.11.04.17,0,.98,0,1.97,0,2.95-.01.03-.02.03-.03,0,0-1.04,0-2.08,0-3.13Z"/>
    <path class="cls-4" d="M70.43,47.05c0-.85-.01-1.69,0-2.54,0-.18-.04-.27-.23-.24,0,0,0-.02,0-.03.21-.04.28.04.28.26-.01.77,0,1.55,0,2.32,0,.08,0,.15-.03.22Z"/>
    <path class="cls-4" d="M70.18,44.24s0,.02,0,.03c-.93.02-1.86.03-2.8,0,.06,0,.12-.03.18-.03.87,0,1.74,0,2.61,0Z"/>
    <path class="cls-4" d="M31.69,49.84c-.08-.03-.04-.11-.04-.16,0-.74,0-1.48,0-2.23,0-.08-.01-.15.05-.22,0,.87,0,1.73,0,2.6Z"/>
    <path class="cls-4" d="M9.78,60.85c0,.33,0,.66-.01.99-.05-.33-.08-.66.01-.99Z"/>
    <path class="cls-4" d="M73.18,64.54s-.03,0-.05,0c0-.28,0-.56,0-.83.02,0,.04,0,.06,0,0,.26,0,.51,0,.77,0,.02,0,.04,0,.06Z"/>
    <path class="cls-4" d="M76.98,68.63s.03,0,.05,0c0,.26,0,.52,0,.78-.1-.26-.04-.52-.04-.79Z"/>
    <path class="cls-4" d="M46.94,54.62s.02,0,.03,0c0,.21.05.43-.03.64,0-.21,0-.43,0-.64Z"/>
    <path class="cls-4" d="M9.76,72.86c0,.2.02.4.03.6-.11-.19-.07-.4-.03-.6Z"/>
    <path class="cls-4" d="M56.81,49.01v7.82s-.01,0-.02,0v-7.81s.01,0,.02,0Z"/>
    <path class="cls-4" d="M28.47,44.29c.25,0,.5,0,.76,0,4.65,0,9.31,0,13.96,0,.07,0,.14,0,.21,0-.07.06-.16.04-.24.04-4.89,0-9.79,0-14.68,0-.03-.01-.03-.03,0-.04Z"/>
    <path class="cls-4" d="M28.47,44.29s0,.03,0,.04c-.14,0-.19.06-.19.2,0,.07,0,.14,0,.21,0,3.99,0,7.99,0,11.98,0,.11.03.23-.04.34,0-.9-.01-1.8-.01-2.71,0-3.28,0-6.57,0-9.85,0-.2.05-.27.25-.21Z"/>
  </g>
  <rect class="cls-1" x="9.81" y="79.97" width="77.09" height="6.86"/>
  <text class="cls-2" transform="translate(11.27 86.2)"><tspan x="0" y="0">IMMOBILIARE</tspan></text>
</svg>